<svg width="89" height="90" viewBox="0 0 89 90" fill="none" xmlns="http://www.w3.org/2000/svg">
<path d="M42.9952 34.2857V21.4286H30.0966V12.8571H42.9952V0H51.5942V12.8571H64.4928V21.4286H51.5942V34.2857H42.9952ZM19.724 87.4821C18.0401 85.8036 17.1981 83.7857 17.1981 81.4286C17.1981 79.0714 18.0401 77.0536 19.724 75.375C21.408 73.6964 23.4324 72.8571 25.7971 72.8571C28.1618 72.8571 30.1862 73.6964 31.8702 75.375C33.5541 77.0536 34.3961 79.0714 34.3961 81.4286C34.3961 83.7857 33.5541 85.8036 31.8702 87.4821C30.1862 89.1607 28.1618 90 25.7971 90C23.4324 90 21.408 89.1607 19.724 87.4821ZM62.7192 87.4821C61.0352 85.8036 60.1932 83.7857 60.1932 81.4286C60.1932 79.0714 61.0352 77.0536 62.7192 75.375C64.4032 73.6964 66.4275 72.8571 68.7923 72.8571C71.157 72.8571 73.1814 73.6964 74.8653 75.375C76.5493 77.0536 77.3913 79.0714 77.3913 81.4286C77.3913 83.7857 76.5493 85.8036 74.8653 87.4821C73.1814 89.1607 71.157 90 68.7923 90C66.4275 90 64.4032 89.1607 62.7192 87.4821ZM0 12.8571V4.28571H14.0809L32.3539 42.8571H62.4505L79.2186 12.8571H89L70.0821 46.9286C69.2939 48.3571 68.2369 49.4643 66.9112 50.25C65.5855 51.0357 64.1345 51.4286 62.558 51.4286H30.5266L25.7971 60H77.3913V68.5714H25.7971C22.5725 68.5714 20.1182 67.1786 18.4342 64.3929C16.7502 61.6071 16.6965 58.7857 18.2729 55.9286L24.0773 45.4286L8.59903 12.8571H0Z" fill="black"/>
</svg>
