<svg width="22" height="25" viewBox="0 0 22 25" fill="none" xmlns="http://www.w3.org/2000/svg">
<path d="M0 15.2778C0 12.8472 0.572917 10.6829 1.71875 8.78472C2.86458 6.88657 4.125 5.28935 5.5 3.99306C6.875 2.69676 8.13542 1.70718 9.28125 1.02431L11 0V4.58333C11 5.43982 11.2865 6.1169 11.8594 6.61458C12.4323 7.11227 13.074 7.36111 13.7844 7.36111C14.174 7.36111 14.5464 7.28009 14.9016 7.11806C15.2568 6.95602 15.5833 6.68982 15.8813 6.31944L16.5 5.55556C18.15 6.52778 19.4792 7.87616 20.4875 9.60069C21.4958 11.3252 22 13.2176 22 15.2778C22 17.3148 21.5073 19.1725 20.5219 20.8507C19.5365 22.5289 18.2417 23.8542 16.6375 24.8264C17.0271 24.2708 17.3307 23.6632 17.5484 23.0035C17.7661 22.3438 17.875 21.6435 17.875 20.9028C17.875 19.9769 17.7031 19.103 17.3594 18.2812C17.0156 17.4595 16.5229 16.7245 15.8813 16.0764L11 11.25L6.15313 16.0764C5.48854 16.7477 4.98438 17.4884 4.64062 18.2986C4.29688 19.1088 4.125 19.9769 4.125 20.9028C4.125 21.6435 4.23385 22.3438 4.45156 23.0035C4.66927 23.6632 4.97292 24.2708 5.3625 24.8264C3.75833 23.8542 2.46354 22.5289 1.47812 20.8507C0.492708 19.1725 0 17.3148 0 15.2778ZM11 15.1389L13.9219 18.0208C14.3115 18.4144 14.6094 18.8542 14.8156 19.3403C15.0219 19.8264 15.125 20.3472 15.125 20.9028C15.125 22.037 14.724 23.0035 13.9219 23.8021C13.1198 24.6007 12.1458 25 11 25C9.85417 25 8.88021 24.6007 8.07812 23.8021C7.27604 23.0035 6.875 22.037 6.875 20.9028C6.875 20.3704 6.97813 19.8553 7.18438 19.3576C7.39062 18.86 7.68854 18.4144 8.07812 18.0208L11 15.1389Z" fill="#E82A25"/>
</svg>
